<svg width="52" height="20" viewBox="0 0 52 20" fill="none" xmlns="http://www.w3.org/2000/svg">
  <path d="M3.39933e-08 10C2.95292e-08 10.6566 0.439718 11.3068 1.29405 11.9134C2.14838 12.52 3.40059 13.0712 4.97919 13.5355C6.55778 13.9998 8.43185 14.3681 10.4944 14.6194C12.5569 14.8707 14.7675 15 17 15C19.2325 15 21.4431 14.8707 23.5056 14.6194C25.5682 14.3681 27.4422 13.9998 29.0208 13.5355C30.5994 13.0712 31.8516 12.52 32.706 11.9134C33.5603 11.3068 34 10.6566 34 10L34 8.00024L23.375 10L21.25 10L17 10L3.39933e-08 10Z" fill="#7E7E7E"/>
  <path fill-rule="evenodd" clip-rule="evenodd" d="M48.25 2L40.3333 2C36.9473 2 34.182 4.65715 34.0086 8L45.75 8C48.0972 8 50 6.09721 50 3.75C50 2.7835 49.2165 2 48.25 2ZM40.3333 5.66554e-08C35.731 2.53655e-08 32 3.73096 32 8.33333C32 9.25381 32.7462 10 33.6667 10L45.75 10C49.2018 10 52 7.20178 52 3.75C52 1.67893 50.3211 1.24559e-07 48.25 1.10478e-07L40.3333 5.66554e-08Z" fill="#222222"/>
</svg>
