<svg width="52" height="20" viewBox="0 0 52 20" fill="none" xmlns="http://www.w3.org/2000/svg">
  <path d="M34 10C34 9.34339 33.5603 8.69321 32.7059 8.08658C31.8516 7.47995 30.5994 6.92876 29.0208 6.46447C27.4422 6.00017 25.5682 5.63188 23.5056 5.3806C21.4431 5.12933 19.2325 5 17 5C14.7675 5 12.5569 5.12933 10.4944 5.3806C8.43184 5.63188 6.55778 6.00017 4.97918 6.46447C3.40059 6.92876 2.14838 7.47996 1.29405 8.08658C0.439718 8.69321 -1.6564e-07 9.34339 3.39933e-08 10L17 10L21.25 10L23.375 10L34 12L34 10Z" fill="#7E7E7E"/>
  <path fill-rule="evenodd" clip-rule="evenodd" d="M34.0086 12C34.182 15.3429 36.9473 18 40.3333 18L48.25 18C49.2165 18 50 17.2165 50 16.25C50 13.9028 48.0972 12 45.75 12L34.0086 12ZM33.6667 10C32.7462 10 32 10.7462 32 11.6667C32 16.269 35.731 20 40.3333 20L48.25 20C50.3211 20 52 18.3211 52 16.25C52 12.7982 49.2018 10 45.75 10L33.6667 10Z" fill="#222222"/>
</svg>
