<svg width="44" height="38" viewBox="0 0 44 38" fill="none" xmlns="http://www.w3.org/2000/svg">
  <path d="M25.9808 19.3301C26.3091 18.7615 26.2981 18.0044 25.9486 17.1022C25.5991 16.1999 24.9179 15.1701 23.9437 14.0716C22.9696 12.973 21.7217 11.8273 20.2713 10.6997C18.8209 9.57219 17.1963 8.48491 15.4904 7.5C13.7845 6.51509 12.0306 5.65182 10.3289 4.95949C8.62717 4.26715 7.01098 3.75931 5.57256 3.46496C4.13415 3.17061 2.90168 3.09552 1.94554 3.24396C0.9894 3.39241 0.328304 3.76149 -2.38419e-07 4.33013L12.9904 11.8301L25.9808 19.3301Z" fill="#7E7E7E"/>
  <path d="M-0.000292897 33C0.328012 33.5686 0.989108 33.9377 1.94525 34.0861C2.90139 34.2346 4.13385 34.1595 5.57227 33.8651C7.01068 33.5708 8.62688 33.0629 10.3286 32.3706C12.0303 31.6783 13.7842 30.815 15.4901 29.8301C17.196 28.8452 18.8206 27.7579 20.271 26.6303C21.7214 25.5028 22.9693 24.357 23.9434 23.2585C24.9176 22.16 25.5988 21.1302 25.9483 20.2279C26.2979 19.3257 26.3088 18.5686 25.9805 18L12.9901 25.5L-0.000292897 33Z" fill="#7E7E7E"/>
  <path fill-rule="evenodd" clip-rule="evenodd" d="M36.0729 4.60705L29.2169 8.56538C26.2845 10.2584 25.2182 13.9422 26.7395 16.9239L36.9078 11.0532C38.9406 9.8796 39.6371 7.28034 38.4635 5.2476C37.9802 4.41058 36.9099 4.1238 36.0729 4.60705ZM28.2169 6.83333C24.2311 9.13452 22.8655 14.2311 25.1667 18.2169C25.6269 19.014 26.6462 19.2872 27.4434 18.8269L37.9078 12.7853C40.8972 11.0594 41.9214 7.23692 40.1955 4.2476C39.16 2.454 36.8665 1.83947 35.0729 2.875L28.2169 6.83333Z" fill="#7E7E7E"/>
  <path fill-rule="evenodd" clip-rule="evenodd" d="M26.7395 20.7364C25.2182 23.718 26.2845 27.4019 29.2169 29.0949L36.0729 33.0532C36.9099 33.5365 37.9802 33.2497 38.4635 32.4127C39.6371 30.3799 38.9406 27.7807 36.9078 26.6071L26.7395 20.7364ZM27.4434 18.8333C26.6462 18.3731 25.6269 18.6462 25.1667 19.4434C22.8655 23.4291 24.2311 28.5257 28.2169 30.8269L35.0729 34.7853C36.8665 35.8208 39.16 35.2063 40.1955 33.4127C41.9214 30.4233 40.8972 26.6009 37.9078 24.875L27.4434 18.8333Z" fill="#7E7E7E"/>
</svg>
